HIERARCHY
ROOT Hips
{
	OFFSET -0.179506 -22.333345 2.821913
	CHANNELS 6 Xposition Yposition Zposition Zrotation Yrotation Xrotation 
	JOINT LeftUpLeg
	{
		OFFSET 6.951974 -9.140623 -0.681533
		CHANNELS 3 Zrotation Yrotation Xrotation
		JOINT LeftLeg
		{
			OFFSET 3.427654 -37.519855 -0.449580
			CHANNELS 3 Zrotation Yrotation Xrotation
			JOINT LeftFoot
			{
				OFFSET -1.359570 -39.796059 -4.369333
				CHANNELS 3 Zrotation Yrotation Xrotation
				JOINT LeftToe
				{
					OFFSET 2.635814 -5.579078 11.928840
					CHANNELS 3 Zrotation Yrotation Xrotation
					End Site
					{
						OFFSET 0.000000 0.000000 0.000000
					}
				}
			}
		}
	}
	JOINT RightUpLeg
	{
		OFFSET -6.767048 -9.052170 -0.431982
		CHANNELS 3 Zrotation Yrotation Xrotation
		JOINT RightLeg
		{
			OFFSET -3.829005 -38.256897 -0.885003
			CHANNELS 3 Zrotation Yrotation Xrotation
			JOINT RightFoot
			{
				OFFSET 1.577377 -39.841461 -4.231180
				CHANNELS 3 Zrotation Yrotation Xrotation
				JOINT RightToe
				{
					OFFSET -2.537174 -4.814398 12.334795
					CHANNELS 3 Zrotation Yrotation Xrotation
					End Site
					{
						OFFSET 0.000000 0.000000 0.000000
					}
				}
			}
		}
	}
	JOINT Spine
	{
		OFFSET -0.253288 10.896323 -2.669631
		CHANNELS 3 Zrotation Yrotation Xrotation
		JOINT Spine1
		{
			OFFSET 0.548704 13.518043 0.109247
			CHANNELS 3 Zrotation Yrotation Xrotation
			JOINT Spine2
			{
				OFFSET 0.145701 5.292222 2.542457
				CHANNELS 3 Zrotation Yrotation Xrotation
				JOINT Neck
				{
					OFFSET -0.277840 21.387037 -4.285703
					CHANNELS 3 Zrotation Yrotation Xrotation
					JOINT Head
					{
						OFFSET 0.515184 6.496960 5.134897
						CHANNELS 3 Zrotation Yrotation Xrotation
						End Site
						{
							OFFSET 0.000000 0.000000 0.000000
						}
					}
				}
				JOINT LeftShoulder
				{
					OFFSET 7.884473 12.174932 -3.408961
					CHANNELS 3 Zrotation Yrotation Xrotation
					JOINT LeftArm
					{
						OFFSET 9.097692 3.046888 -0.886815
						CHANNELS 3 Zrotation Yrotation Xrotation
						JOINT LeftForeArm
						{
							OFFSET 25.961220 -1.277207 -2.745643
							CHANNELS 3 Zrotation Yrotation Xrotation
							JOINT LeftHand
							{
								OFFSET 24.923361 0.898606 -0.117091
								CHANNELS 3 Zrotation Yrotation Xrotation
								End Site
								{
									OFFSET 0.000000 0.000000 0.000000
								}
							}
						}
					}
				}
				JOINT RightShoulder
				{
					OFFSET -8.175920 11.883285 -3.861528
					CHANNELS 3 Zrotation Yrotation Xrotation
					JOINT RightArm
					{
						OFFSET -9.601238 3.255117 -0.914307
						CHANNELS 3 Zrotation Yrotation Xrotation
						JOINT RightForeArm
						{
							OFFSET -25.374195 -1.332924 -2.140099
							CHANNELS 3 Zrotation Yrotation Xrotation
							JOINT RightHand
							{
								OFFSET -25.529810 0.777228 -0.555919
								CHANNELS 3 Zrotation Yrotation Xrotation
								End Site
								{
									OFFSET 0.000000 0.000000 0.000000
								}
							}
						}
					}
				}
			}
		}
	}
}
MOTION
Frames: 17
Frame Time: 0.033333
316.503448 -292.989136 94.296318 -141.129064 0.443969 87.210893 -1.270200 0.769346 7.368120 3.141809 -7.382431 -3.280664 2.932297 8.021631 -3.720895 nan nan nan 0.932409 -0.767027 0.416579 -0.846861 2.661571 2.835203 4.509979 -3.544207 -0.402470 nan nan nan -0.852120 1.781807 4.567514 3.279864 -4.630018 9.210977 0.713649 -0.945627 -5.636358 -3.078827 -10.282768 1.682719 7.291881 -10.604846 -11.738118 -26.406973 -3.982649 0.541515 -56.354391 -6.260096 14.401285 1.132731 -17.377297 -5.948369 -12.370975 -7.852068 1.748705 26.628226 9.156338 -1.208938 51.799136 5.925325 12.325331 -8.636869 13.354488 -9.011243 12.124021 8.119079 2.639684 
316.476440 -292.966980 94.242226 -140.950108 0.335651 87.202301 -1.392754 0.730784 7.371446 3.171705 -7.346264 -3.243732 2.846609 8.190254 -4.057912 nan nan nan 0.881922 -0.693803 0.478507 -0.949438 2.617551 2.832446 4.551278 -3.733468 -0.499031 nan nan nan -0.922995 1.703665 4.543047 3.170617 -4.611467 8.853620 0.738064 -1.029415 -5.228231 -2.972331 -10.232568 1.737698 7.341510 -10.610336 -11.840088 -26.092549 -3.947357 0.571316 -56.590905 -6.293605 14.453531 1.255748 -17.390193 -5.378879 -12.805966 -7.961554 1.794503 26.494736 9.127344 -1.197062 52.095342 5.863777 12.403248 -8.618483 13.276665 -8.577272 12.266695 8.104560 2.427512 
316.496490 -292.933990 94.221420 -140.997187 0.327520 87.243407 -1.366034 0.741219 7.335126 3.160432 -7.334567 -3.236881 2.792443 8.224113 -4.091774 nan nan nan 0.918647 -0.610540 0.414107 -0.998705 2.616679 2.873072 4.566616 -3.755263 -0.519443 nan nan nan -1.007263 1.689217 4.512261 3.171761 -4.545508 8.702776 0.774671 -1.017113 -5.098345 -2.891678 -10.187717 1.727191 7.361491 -10.590539 -11.851835 -25.986372 -3.888205 0.539257 -56.692121 -6.289810 14.498699 1.280875 -17.382409 -5.247454 -12.871551 -7.984862 1.776845 26.491170 9.084933 -1.217962 52.208564 5.889766 12.465059 -8.589187 13.232262 -8.445307 12.293533 8.088927 2.355936 
316.591003 -292.907104 94.196098 -141.332633 0.318892 87.425642 -1.294244 0.813830 7.154861 3.088220 -7.276177 -3.280211 2.827911 8.264319 -3.922941 nan nan nan 1.048894 -0.405382 -0.006010 -1.118353 2.704503 3.176009 4.569130 -3.716424 -0.584554 nan nan nan -1.214239 1.714263 4.464876 3.234629 -4.367329 8.538022 0.822346 -0.893145 -5.082913 -2.827367 -10.160059 1.659152 7.368962 -10.559664 -11.766673 -25.797266 -3.728287 0.376941 -56.819787 -6.176522 14.698312 1.291319 -17.458368 -5.203195 -12.826405 -7.968069 1.837086 26.500425 9.023706 -1.269110 52.315879 5.917803 12.625410 -8.512328 13.301907 -8.346689 12.314178 8.122851 2.319620 
316.510437 -292.909698 94.190735 -141.099715 0.255245 87.252468 -1.408867 0.744901 7.378660 3.098294 -7.388278 -3.362585 2.831746 8.076103 -3.667445 nan nan nan 0.908559 -0.523285 0.327452 -1.113182 2.611672 3.014582 4.566163 -3.734528 -0.563159 nan nan nan -1.107302 1.670597 4.492006 3.142722 -4.462818 8.579219 0.785530 -0.993216 -4.945026 -2.836310 -10.153912 1.622954 7.388527 -10.558290 -11.771156 -25.878835 -3.825689 0.544967 -56.805625 -6.292830 14.462914 1.297590 -17.479814 -5.326897 -12.662389 -8.060064 1.526523 26.464523 9.071205 -1.210479 52.315941 5.977108 12.506890 -8.625522 13.262861 -8.479304 12.179812 8.125057 2.220153 
316.491150 -292.910583 94.189713 -140.971628 0.307759 87.224487 -1.541274 0.406267 7.307641 3.288654 -7.986966 -3.871439 3.441188 6.541892 0.567291 nan nan nan 0.931847 -0.510996 0.460332 -1.072207 2.466668 2.859899 4.357998 -3.700305 -0.282326 nan nan nan -0.948576 1.677551 4.521080 3.010480 -4.502757 8.395727 0.826011 -1.028711 -4.794936 -3.075733 -10.321701 1.584733 7.602275 -10.441032 -11.635888 -25.894081 -3.870936 0.704364 -56.903006 -6.355170 14.229251 1.508617 -17.382546 -5.728432 -12.864182 -8.359193 1.106612 26.409891 9.031551 -1.216413 52.344766 5.979177 12.451956 -9.380263 13.737415 -8.884716 12.313386 8.404196 2.279724 
316.491699 -292.897095 94.197525 -141.081685 0.200583 87.223580 -1.570374 0.598225 7.522296 3.219828 -7.624701 -3.763358 3.506819 7.361970 -1.595969 nan nan nan 0.804944 -0.491268 0.383221 -1.046382 2.485299 3.002998 4.528942 -3.629079 -0.354885 nan nan nan -1.116641 1.679584 4.424101 3.044061 -4.427542 8.564562 0.816425 -1.016025 -4.885113 -2.980334 -10.216021 1.660641 7.573479 -10.484486 -11.697515 -25.829064 -3.784387 0.739823 -56.855749 -6.191034 14.181051 1.480331 -17.642935 -5.912128 -12.878806 -8.733654 1.004563 26.426108 9.110315 -1.140163 52.408651 5.954672 12.443676 -9.071689 13.639328 -8.838340 12.262890 8.568433 2.047203 
316.513824 -292.878754 94.163254 -141.058482 0.307063 87.356804 -1.453571 0.527178 7.267703 3.247163 -7.570921 -3.428434 3.249274 7.822272 -2.748148 nan nan nan 0.951441 -0.375943 0.238318 -1.039414 2.681818 2.929215 4.774865 -3.893903 -0.294478 nan nan nan -0.916361 1.642120 4.323091 2.991429 -4.467291 8.275207 0.913029 -1.183044 -4.613107 -3.103167 -10.145204 2.158358 7.545433 -10.437811 -12.329947 -25.453502 -4.071411 0.040664 -56.917270 -6.435615 14.560954 0.622487 -16.436711 -3.229913 -14.090472 -8.252084 1.292480 26.239701 9.412083 -1.255020 54.773015 5.908782 16.110225 -3.874278 20.413155 0.225028 12.589916 8.243014 4.189608 
316.541656 -292.880890 94.154564 -141.167624 0.396092 87.396013 -1.324730 0.619546 7.175005 3.230424 -7.576558 -3.379613 3.231507 7.808298 -2.722612 nan nan nan 1.026500 -0.444549 0.097573 -0.952977 2.799655 3.015732 4.766424 -3.859399 -0.258515 nan nan nan -0.830533 1.673871 4.409510 3.021157 -4.438924 8.219570 0.893576 -1.114799 -4.699638 -3.073736 -10.216119 2.184477 7.514191 -10.419951 -12.366051 -25.601739 -4.117017 -0.076376 -56.808099 -6.448316 14.727958 0.576168 -16.352790 -2.926613 -13.946550 -7.680254 1.588168 26.275050 9.356383 -1.318601 54.717504 5.865112 16.183462 -3.806974 20.581583 0.384835 12.573343 7.954908 4.310521 
316.544678 -292.876740 94.147552 -141.214168 0.434034 87.379392 -1.288098 0.654019 7.187047 3.235714 -7.652370 -3.250100 3.227392 7.880492 -3.060508 nan nan nan 1.099858 -0.477468 0.061105 -0.984362 2.910864 3.100307 4.749770 -3.883863 -0.399664 nan nan nan -0.794256 1.694056 4.469525 3.048603 -4.426626 8.175917 0.879815 -1.078391 -4.711407 -3.018420 -10.269497 2.193119 7.485872 -10.387346 -12.419962 -25.648866 -4.104520 -0.198563 -56.787830 -6.454806 14.841064 0.559788 -16.298512 -2.726505 -13.891069 -7.288504 1.770760 26.213501 9.296506 -1.419516 54.798542 5.835774 16.230172 -3.768369 20.598795 0.438582 12.614669 7.780514 4.295972 
316.515930 -292.838928 94.132050 -141.117064 0.452378 87.228291 -1.214937 0.707259 7.713842 3.253999 -7.458001 -3.558470 3.076813 7.590780 -3.763448 nan nan nan 1.144246 -0.570950 0.336533 -1.081758 2.883753 2.995311 4.848049 -3.871207 -0.590666 nan nan nan -0.779937 1.689896 4.548234 3.058521 -4.393011 8.102059 0.908788 -1.145711 -4.506207 -2.914070 -10.173286 2.202844 7.449322 -10.523804 -12.714080 -25.649248 -4.148902 -0.235198 -56.749489 -6.597498 14.606927 0.349515 -16.207031 -2.715364 -13.901052 -7.172059 1.410892 26.123085 9.204458 -1.597265 54.873069 5.970517 16.227843 -3.538424 20.426215 0.632879 12.692156 7.607998 4.254595 
316.510162 -292.840210 94.134903 -141.129080 0.446302 87.277132 -1.228679 0.661507 7.700658 3.238951 -7.489079 -3.509690 3.041537 7.640341 -4.063689 nan nan nan 1.146129 -0.530313 0.248592 -1.089885 2.874763 3.067538 4.865520 -3.900976 -0.691323 nan nan nan -0.801162 1.692674 4.449821 3.093630 -4.383987 8.169731 0.916780 -1.126870 -4.500603 -2.897870 -10.046750 2.144266 7.442144 -10.637636 -12.803155 -25.533362 -4.123191 -0.299237 -56.892419 -6.511752 14.718201 0.556256 -16.038134 -2.264949 -14.469636 -7.209758 2.067363 26.179753 9.308176 -1.611532 54.829760 6.089157 16.213898 -3.607822 20.092481 0.864740 12.981969 7.589705 4.691753 
316.391144 -292.874298 94.070953 -141.441671 0.268457 86.590334 -1.559782 0.925437 8.732991 3.425184 -7.385815 -3.924245 3.103404 7.731647 -4.132146 nan nan nan 0.742652 -0.524927 0.951737 -0.962949 2.974317 3.171386 5.042256 -3.670752 -0.885285 nan nan nan -0.565582 1.714932 5.209879 2.821388 -4.126669 7.751859 0.850412 -1.104469 -3.864836 -2.894608 -10.049502 1.821562 7.407964 -10.658081 -12.850757 -25.432711 -4.247414 -0.241183 -57.068829 -6.701633 14.332878 0.773697 -15.978573 -1.667830 -15.311627 -7.388993 1.923863 25.863636 9.348643 -1.756932 55.052525 6.376268 16.204708 -3.671239 19.969198 1.353197 13.462295 7.469589 4.695448 
316.387604 -292.845734 94.059280 -141.395000 0.244394 86.554191 -1.546155 0.953181 8.779708 3.418271 -7.366167 -3.933446 3.081968 7.752414 -4.169967 nan nan nan 0.690418 -0.556659 1.010193 -0.927912 2.954796 3.173373 5.066188 -3.693328 -0.878325 nan nan nan -0.577143 1.714905 5.242005 2.797061 -4.112092 7.686977 0.850224 -1.128262 -3.782507 -2.832296 -10.060608 1.724968 7.378255 -10.646119 -12.798228 -25.432304 -4.200062 -0.262738 -57.039668 -6.724083 14.310023 0.746125 -15.963215 -1.523209 -15.409975 -7.373018 1.955274 25.851386 9.262880 -1.803096 55.087885 6.357524 16.241099 -3.681400 20.102420 1.469429 13.506427 7.450886 4.674366 
316.388367 -292.829285 94.060524 -141.393137 0.258546 86.541953 -1.517793 0.952045 8.807272 3.417662 -7.418435 -3.926045 3.107306 7.625154 -3.954171 nan nan nan 0.671359 -0.627448 1.027662 -0.864065 2.899159 3.183324 5.071383 -3.689727 -0.790359 nan nan nan -0.524400 1.724774 5.234899 2.775518 -4.110049 7.726031 0.822749 -1.129660 -3.787335 -2.797077 -10.053230 1.734708 7.384501 -10.633151 -12.861259 -25.545646 -4.204359 -0.250580 -56.896215 -6.714601 14.253643 0.728988 -15.997490 -1.567470 -15.420338 -7.352657 2.019937 25.897695 9.233107 -1.814491 55.078617 6.330185 16.253896 -3.667279 20.247037 1.560604 13.510559 7.428325 4.803185 
316.374054 -292.776306 94.060410 -141.336446 0.271479 86.395432 -1.247983 1.591679 8.722882 3.341822 -5.724468 -4.092575 2.505209 9.015395 -4.997391 nan nan nan 0.654006 -0.683203 1.225008 -0.785571 2.696227 3.182804 5.232953 -3.747047 -0.597741 nan nan nan -0.504719 1.660811 5.280178 2.724024 -4.052889 7.728845 0.854342 -1.182202 -3.687326 -2.676266 -9.979626 1.788088 7.316371 -10.662650 -12.859986 -25.533760 -4.156975 -0.026093 -56.841803 -6.841067 14.046951 0.725177 -16.050382 -1.453301 -15.550506 -7.704782 1.797214 25.848371 9.237896 -1.725832 55.148794 6.437070 16.167477 -3.500937 20.265080 1.613517 13.284334 7.444039 4.244983 
316.360809 -292.767883 94.040810 -141.261106 0.168892 86.450763 -1.414578 1.473237 8.659978 3.402173 -5.717433 -4.091055 2.443075 9.104721 -4.977162 nan nan nan 0.541377 -0.538971 1.267681 -0.877894 2.742411 2.986612 5.288103 -3.741747 -0.486022 nan nan nan -0.589279 1.656786 5.123841 2.686586 -4.063251 7.716952 0.871065 -1.212775 -3.570218 -2.707715 -9.973117 1.852997 7.430528 -10.638279 -12.902181 -25.399498 -4.079418 0.040907 -56.964126 -6.889905 13.931511 0.821311 -15.961163 -1.718625 -15.907061 -8.373194 1.614001 25.777057 9.252565 -1.689595 55.246311 6.461450 16.148563 -3.553284 20.254222 1.544158 13.348179 7.751839 4.091675 
